<svg width="1200" height="700" viewBox="0 0 1200 700" fill="none" xmlns="http://www.w3.org/2000/svg">
  <rect width="1200" height="700" fill="#020617"/>
  <rect x="50" y="50" width="1100" height="600" rx="26" fill="#0F172A" stroke="#1E293B"/>
  <rect x="90" y="90" width="240" height="520" rx="18" fill="#111827"/>
  <rect x="360" y="90" width="750" height="110" rx="18" fill="#111827"/>
  <rect x="360" y="220" width="240" height="180" rx="18" fill="#1E293B"/>
  <rect x="620" y="220" width="240" height="180" rx="18" fill="#1E293B"/>
  <rect x="880" y="220" width="230" height="180" rx="18" fill="#1E293B"/>
  <rect x="360" y="420" width="750" height="190" rx="18" fill="#111827"/>
  <path d="M410 540C460 480 520 500 570 460C620 420 670 430 720 390C770 350 830 360 900 310" stroke="#F97316" stroke-width="10" stroke-linecap="round"/>
  <text x="90" y="640" fill="#E2E8F0" font-family="Inter, Arial, sans-serif" font-size="38" font-weight="700">Nova Dashboard</text>
</svg>
